<svg width="59" height="60" viewBox="0 0 59 60" fill="none" xmlns="http://www.w3.org/2000/svg">
<g clip-path="url(#clip0)">
<path d="M34.7274 26.3471C34.7274 25.4366 35.4655 24.6986 36.3759 24.6986H56.8051C57.7155 24.6986 58.4535 25.4366 58.4535 26.3471V38.3867C58.4535 44.9385 53.1423 50.2498 46.5905 50.2498V50.2498C40.0387 50.2498 34.7274 44.9385 34.7274 38.3867V26.3471Z" fill="url(#paint0_linear)"/>
<path d="M16.4766 23.2856C16.4766 22.0501 17.4782 21.0484 18.7138 21.0484H43.4407C44.6763 21.0484 45.6779 22.0501 45.6779 23.2856V41.1244C45.6779 49.1881 39.141 55.7251 31.0773 55.7251V55.7251C23.0135 55.7251 16.4766 49.1881 16.4766 41.1244V23.2856Z" fill="url(#paint1_linear)"/>
<circle cx="49.3282" cy="15.5732" r="5.47526" fill="#34439E"/>
<circle cx="49.3282" cy="15.5732" r="5.47526" fill="url(#paint2_linear)"/>
<circle cx="32.9024" cy="11.923" r="7.30035" fill="url(#paint3_linear)"/>
<mask id="mask0" style="mask-type:alpha" maskUnits="userSpaceOnUse" x="16" y="0" width="30" height="56">
<path d="M31.0773 19.2233C36.1172 19.2233 40.2027 15.1378 40.2027 10.0979C40.2027 5.05798 36.1172 0.972473 31.0773 0.972473C26.0373 0.972473 21.9518 5.05798 21.9518 10.0979C21.9518 15.1378 26.0373 19.2233 31.0773 19.2233Z" fill="url(#paint4_linear)"/>
<path d="M18.7138 21.0484C17.4782 21.0484 16.4766 22.0501 16.4766 23.2857V41.1244C16.4766 49.1882 23.0134 55.7251 31.0773 55.7251C39.1411 55.7251 45.6779 49.1882 45.6779 41.1244V23.2857C45.6779 22.0501 44.6763 21.0484 43.4407 21.0484H18.7138Z" fill="url(#paint5_linear)"/>
</mask>
<g mask="url(#mask0)">
<path d="M12.8264 22.8735C12.8264 19.8496 15.2778 17.3983 18.3017 17.3983H31.0773C34.1012 17.3983 36.5525 19.8496 36.5525 22.8735V44.7745C36.5525 47.7984 34.1012 50.2498 31.0773 50.2498H12.8264V22.8735Z" fill="black" fill-opacity="0.3"/>
</g>
<rect x="0.0507812" y="13.7481" width="32.8516" height="32.8516" rx="3.65017" fill="url(#paint6_linear)"/>
<path d="M23.777 21.0484H9.17627V24.397H14.6423V39.2993H18.3109V24.397H23.777V21.0484Z" fill="white"/>
</g>
<defs>
<linearGradient id="paint0_linear" x1="34.7274" y1="26.0434" x2="58.7439" y2="41.7367" gradientUnits="userSpaceOnUse">
<stop stop-color="#364088"/>
<stop offset="1" stop-color="#6E7EE1"/>
</linearGradient>
<linearGradient id="paint1_linear" x1="16.4766" y1="36.3862" x2="45.6779" y2="36.3862" gradientUnits="userSpaceOnUse">
<stop stop-color="#515FC4"/>
<stop offset="1" stop-color="#7084EA"/>
</linearGradient>
<linearGradient id="paint2_linear" x1="43.8529" y1="10.6742" x2="54.4317" y2="18.1186" gradientUnits="userSpaceOnUse">
<stop stop-color="#364088"/>
<stop offset="1" stop-color="#6E7EE1"/>
</linearGradient>
<linearGradient id="paint3_linear" x1="27.6879" y1="6.70846" x2="37.074" y2="17.659" gradientUnits="userSpaceOnUse">
<stop stop-color="#4858AE"/>
<stop offset="1" stop-color="#4E60CE"/>
</linearGradient>
<linearGradient id="paint4_linear" x1="24.5591" y1="3.57974" x2="36.2918" y2="17.2679" gradientUnits="userSpaceOnUse">
<stop stop-color="#4858AE"/>
<stop offset="1" stop-color="#4E60CE"/>
</linearGradient>
<linearGradient id="paint5_linear" x1="24.5591" y1="3.57974" x2="36.2918" y2="17.2679" gradientUnits="userSpaceOnUse">
<stop stop-color="#4858AE"/>
<stop offset="1" stop-color="#4E60CE"/>
</linearGradient>
<linearGradient id="paint6_linear" x1="0.0507812" y1="30.1739" x2="32.9023" y2="30.1739" gradientUnits="userSpaceOnUse">
<stop stop-color="#2A3887"/>
<stop offset="1" stop-color="#4C56B9"/>
</linearGradient>
<clipPath id="clip0">
<rect width="58.4028" height="58.4028" fill="white" transform="translate(0.0507812 0.972473)"/>
</clipPath>
</defs>
</svg>
